<?xml version="1.0" encoding="UTF-8" standalone="no" ?>
<!DOCTYPE svg PUBLIC "-//W3C//DTD SVG 1.1//EN" "http://www.w3.org/Graphics/SVG/1.1/DTD/svg11.dtd">
<svg xmlns="http://www.w3.org/2000/svg" xmlns:xlink="http://www.w3.org/1999/xlink" version="1.1" width="1080" height="1080" viewBox="0 0 1080 1080" xml:space="preserve">
<desc>Created with Fabric.js 5.2.4</desc>
<defs>
</defs>
<g transform="matrix(1 0 0 1 540 540)" id="92302686-d04f-4920-85bd-90252508e33f"  >
</g>
<g transform="matrix(1 0 0 1 540 540)" id="b896b94e-5409-4253-a908-69bc415b9878"  >
<rect style="stroke: none; stroke-width: 1; stroke-dasharray: none; stroke-linecap: butt; stroke-dashoffset: 0; stroke-linejoin: miter; stroke-miterlimit: 4; fill: rgb(255,255,255); fill-rule: nonzero; opacity: 1; visibility: hidden;" vector-effect="non-scaling-stroke"  x="-540" y="-540" rx="0" ry="0" width="1080" height="1080" />
</g>
<g transform="matrix(2.38 0 0 2.38 -571.8 1069.27)"  >
<g style="" vector-effect="non-scaling-stroke"   >
		<g transform="matrix(1 0 0 1 -77.59 0.56)"  >
<path style="stroke: none; stroke-width: 1; stroke-dasharray: none; stroke-linecap: butt; stroke-dashoffset: 0; stroke-linejoin: miter; stroke-miterlimit: 4; fill: rgb(255,255,255); fill-rule: nonzero; opacity: 1;" vector-effect="non-scaling-stroke"  transform=" translate(-89.22, -22.56)" d="M 75.9917 29.6191 L 75.9917 23.9235 C 75.9917 23.6382 76.0671 23.4516 76.2184 23.3638 C 76.3911 23.276 76.5963 23.3419 76.8335 23.5614 C 78.3234 24.988 80.0719 26.0635 82.0796 26.7878 C 84.1088 27.5121 86.1489 27.8743 88.1999 27.8743 C 91.4383 27.8743 93.0574 27.4792 93.0574 26.689 C 93.0574 26.2939 92.8953 26.0415 92.5716 25.9318 C 92.2692 25.8001 91.7619 25.7342 91.0494 25.7342 C 90.8337 25.7342 90.4127 25.7452 89.7866 25.7672 C 89.182 25.7672 88.6857 25.7672 88.2972 25.7672 C 84.7134 25.6794 81.8314 24.8783 79.651 23.3638 C 77.4706 21.8274 76.3802 19.9728 76.3802 17.7999 C 76.3802 15.3197 77.5351 13.5199 79.8452 12.4005 C 82.1769 11.2592 85.3179 10.6886 89.2684 10.6886 C 91.4273 10.6886 93.6941 10.7764 96.0688 10.9519 C 96.2849 10.9739 96.5331 11.1165 96.8137 11.3799 C 97.0943 11.6433 97.2346 11.9286 97.2346 12.2359 L 97.2346 16.6147 C 97.2346 16.9 97.1158 17.1743 96.8785 17.4377 C 96.6409 17.6791 96.3712 17.7999 96.0688 17.7999 C 95.9824 17.7999 95.0542 17.756 93.2841 17.6682 C 91.5352 17.5804 90.1106 17.5365 89.0093 17.5365 C 87.045 17.5365 86.0625 17.7779 86.0625 18.2608 C 86.0625 18.8095 86.9477 19.0838 88.7181 19.0838 C 90.0997 19.0838 91.4813 19.1826 92.8628 19.3801 C 94.2663 19.5777 95.7342 19.9179 97.267 20.4008 C 98.7998 20.8837 100.041 21.6409 100.991 22.6724 C 101.962 23.6821 102.448 24.9002 102.448 26.3269 C 102.448 28.6973 101.056 30.6397 98.271 32.1542 C 95.486 33.6686 92.0968 34.4259 88.1026 34.4259 C 84.3679 34.4259 80.6765 33.4052 77.0278 31.364 C 76.3372 30.9909 75.9917 30.4093 75.9917 29.6191 Z" stroke-linecap="round" />
</g>
		<g transform="matrix(1 0 0 1 -55.16 0.57)"  >
<path style="stroke: none; stroke-width: 1; stroke-dasharray: none; stroke-linecap: butt; stroke-dashoffset: 0; stroke-linejoin: miter; stroke-miterlimit: 4; fill: rgb(255,255,255); fill-rule: nonzero; opacity: 1;" vector-effect="non-scaling-stroke"  transform=" translate(-111.65, -22.57)" d="M 99.9941 16.6147 L 99.9941 12.2359 C 99.9941 11.9506 100.113 11.6872 100.35 11.4458 C 100.588 11.1824 100.857 11.0507 101.16 11.0507 L 122.144 11.0507 C 122.446 11.0507 122.716 11.1714 122.953 11.4129 C 123.191 11.6323 123.31 11.9067 123.31 12.2359 L 123.31 16.6147 C 123.31 16.9 123.191 17.1743 122.953 17.4377 C 122.716 17.6792 122.446 17.7999 122.144 17.7999 L 116.444 17.7999 L 116.444 32.9114 C 116.444 33.2187 116.326 33.4931 116.088 33.7345 C 115.872 33.9759 115.603 34.0966 115.279 34.0966 L 108.025 34.0966 C 107.744 34.0966 107.475 33.9869 107.215 33.7674 C 106.978 33.526 106.859 33.2406 106.859 32.9114 L 106.859 17.7999 L 101.16 17.7999 C 100.879 17.7999 100.609 17.6792 100.35 17.4377 C 100.113 17.1963 99.9941 16.9219 99.9941 16.6147 Z" stroke-linecap="round" />
</g>
		<g transform="matrix(1 0 0 1 -31.74 0.57)"  >
<path style="stroke: none; stroke-width: 1; stroke-dasharray: none; stroke-linecap: butt; stroke-dashoffset: 0; stroke-linejoin: miter; stroke-miterlimit: 4; fill: rgb(255,255,255); fill-rule: nonzero; opacity: 1;" vector-effect="non-scaling-stroke"  transform=" translate(-135.07, -22.57)" d="M 121.211 32.9773 L 129.695 12.1372 C 129.803 11.8738 130.019 11.6214 130.343 11.3799 C 130.667 11.1604 130.991 11.0507 131.314 11.0507 L 139.086 11.0507 C 139.367 11.0507 139.669 11.1604 139.993 11.3799 C 140.338 11.5994 140.565 11.8518 140.673 12.1372 L 148.963 33.0102 C 149.006 33.1199 149.028 33.2406 149.028 33.3723 C 149.028 33.5918 148.952 33.7674 148.801 33.8991 C 148.65 34.0308 148.455 34.0966 148.218 34.0966 L 141.515 34.0966 C 141.234 34.0966 140.932 33.9869 140.608 33.7674 C 140.284 33.5479 140.068 33.2845 139.961 32.9773 L 138.957 30.0142 L 131.023 30.0142 L 129.987 32.9773 C 129.9 33.2187 129.695 33.4711 129.372 33.7345 C 129.048 33.9759 128.734 34.0966 128.432 34.0966 L 121.924 34.0966 C 121.664 34.0966 121.47 34.0308 121.34 33.8991 C 121.19 33.7235 121.114 33.5479 121.114 33.3723 C 121.114 33.2626 121.146 33.1309 121.211 32.9773 Z M 132.933 24.549 L 137.143 24.549 L 135.071 18.4254 L 132.933 24.549 Z" stroke-linecap="round" />
</g>
		<g transform="matrix(1 0 0 1 -5.19 0.57)"  >
<path style="stroke: none; stroke-width: 1; stroke-dasharray: none; stroke-linecap: butt; stroke-dashoffset: 0; stroke-linejoin: miter; stroke-miterlimit: 4; fill: rgb(255,255,255); fill-rule: nonzero; opacity: 1;" vector-effect="non-scaling-stroke"  transform=" translate(-161.63, -22.57)" d="M 148.516 22.5737 C 148.516 18.9961 149.757 16.1318 152.24 13.9808 C 154.722 11.8079 158.166 10.7215 162.57 10.7215 C 164.124 10.7215 165.7 10.8093 167.298 10.9849 C 168.917 11.1604 170.136 11.336 170.957 11.5116 C 171.799 11.6653 172.349 11.786 172.608 11.8738 C 172.932 11.9835 173.191 12.1811 173.385 12.4664 C 173.601 12.7297 173.709 13.0371 173.709 13.3882 L 173.709 18.0303 C 173.709 18.3157 173.591 18.5571 173.353 18.7546 C 173.137 18.9302 172.889 18.9741 172.608 18.8863 C 171.939 18.6668 170.827 18.4144 169.273 18.1291 C 167.718 17.8438 166.154 17.7011 164.577 17.7011 C 160.001 17.7011 157.712 19.3253 157.712 22.5737 C 157.712 24.0223 158.176 25.1855 159.105 26.0635 C 160.055 26.9414 161.404 27.3804 163.152 27.3804 C 164.707 27.3804 166.197 27.2816 167.621 27.0841 L 167.621 25.6355 L 164.318 25.6355 C 164.059 25.6355 163.8 25.5148 163.541 25.2734 C 163.282 25.0319 163.152 24.7576 163.152 24.4503 L 163.152 21.5202 C 163.152 21.2568 163.271 20.9934 163.509 20.73 C 163.746 20.4666 164.016 20.3349 164.318 20.3349 L 173.58 20.3349 C 173.882 20.3349 174.152 20.4556 174.389 20.6971 C 174.627 20.9166 174.745 21.1909 174.745 21.5202 L 174.745 29.6191 C 174.745 30.4312 174.422 31.0458 173.774 31.4628 C 172.047 32.5383 170.428 33.3065 168.917 33.7674 C 167.427 34.2064 165.506 34.4259 163.152 34.4259 C 158.705 34.4259 155.154 33.3394 152.499 31.1665 C 149.843 28.9717 148.516 26.1074 148.516 22.5737 Z" stroke-linecap="round" />
</g>
		<g transform="matrix(1 0 0 1 21.99 0.57)"  >
<path style="stroke: none; stroke-width: 1; stroke-dasharray: none; stroke-linecap: butt; stroke-dashoffset: 0; stroke-linejoin: miter; stroke-miterlimit: 4; fill: rgb(255,255,255); fill-rule: nonzero; opacity: 1;" vector-effect="non-scaling-stroke"  transform=" translate(-188.81, -22.57)" d="M 177.634 32.9114 L 177.634 12.2359 C 177.634 11.9286 177.743 11.6543 177.958 11.4129 C 178.196 11.1714 178.476 11.0507 178.8 11.0507 L 194.344 11.0507 C 194.711 11.0507 195.035 11.1495 195.315 11.347 C 195.596 11.5446 195.79 11.8189 195.898 12.1701 L 197.906 17.9316 L 186.831 17.9316 L 186.831 19.8411 L 196.87 19.8411 C 197.172 19.8411 197.442 19.9618 197.679 20.2032 C 197.917 20.4227 198.035 20.6971 198.035 21.0263 L 198.035 24.1211 C 198.035 24.3844 197.917 24.6478 197.679 24.9112 C 197.442 25.1746 197.172 25.3063 196.87 25.3063 L 186.831 25.3063 L 186.831 27.2158 L 198.813 27.2158 C 199.115 27.2158 199.385 27.3365 199.622 27.5779 C 199.86 27.7974 199.979 28.0718 199.979 28.401 L 199.979 32.9114 C 199.979 33.1968 199.86 33.4711 199.622 33.7345 C 199.385 33.9759 199.115 34.0966 198.813 34.0966 L 178.8 34.0966 C 178.498 34.0966 178.228 33.9869 177.991 33.7674 C 177.753 33.526 177.634 33.2406 177.634 32.9114 Z" stroke-linecap="round" />
</g>
		<g transform="matrix(1 0 0 1 45.48 0.57)"  >
<path style="stroke: none; stroke-width: 1; stroke-dasharray: none; stroke-linecap: butt; stroke-dashoffset: 0; stroke-linejoin: miter; stroke-miterlimit: 4; fill: rgb(255,255,255); fill-rule: nonzero; opacity: 1;" vector-effect="non-scaling-stroke"  transform=" translate(-212.29, -22.57)" d="M 199.207 12.1701 C 199.164 12.0603 199.143 11.9396 199.143 11.8079 C 199.143 11.5885 199.207 11.4129 199.337 11.2812 C 199.488 11.1275 199.693 11.0507 199.952 11.0507 L 207.238 11.0507 C 207.519 11.0507 207.81 11.1714 208.113 11.4129 C 208.436 11.6323 208.642 11.8957 208.728 12.203 L 212.322 24.8124 L 216.047 12.1701 C 216.133 11.8848 216.316 11.6323 216.597 11.4129 C 216.899 11.1714 217.212 11.0507 217.536 11.0507 L 224.628 11.0507 C 224.865 11.0507 225.059 11.1275 225.211 11.2812 C 225.362 11.4129 225.437 11.5885 225.437 11.8079 C 225.437 11.9177 225.416 12.0384 225.372 12.1701 L 217.471 32.9773 C 217.363 33.2626 217.147 33.526 216.823 33.7674 C 216.521 33.9869 216.208 34.0966 215.884 34.0966 L 208.436 34.0966 C 208.156 34.0966 207.843 33.9869 207.497 33.7674 C 207.174 33.5479 206.958 33.2845 206.85 32.9773 L 199.207 12.1701 Z" stroke-linecap="round" />
</g>
		<g transform="matrix(1 0 0 1 72.65 0.57)"  >
<path style="stroke: none; stroke-width: 1; stroke-dasharray: none; stroke-linecap: butt; stroke-dashoffset: 0; stroke-linejoin: miter; stroke-miterlimit: 4; fill: rgb(255,255,255); fill-rule: nonzero; opacity: 1;" vector-effect="non-scaling-stroke"  transform=" translate(-239.47, -22.57)" d="M 228.293 32.9114 L 228.293 12.2359 C 228.293 11.9286 228.401 11.6543 228.617 11.4129 C 228.855 11.1714 229.136 11.0507 229.459 11.0507 L 249.472 11.0507 C 249.774 11.0507 250.044 11.1714 250.281 11.4129 C 250.519 11.6323 250.638 11.9067 250.638 12.2359 L 250.638 16.7464 C 250.638 17.0317 250.519 17.306 250.281 17.5694 C 250.044 17.8108 249.774 17.9316 249.472 17.9316 L 237.49 17.9316 L 237.49 19.8411 L 247.529 19.8411 C 247.831 19.8411 248.101 19.9618 248.338 20.2032 C 248.576 20.4227 248.695 20.6971 248.695 21.0263 L 248.695 24.1211 C 248.695 24.3844 248.576 24.6478 248.338 24.9112 C 248.101 25.1746 247.831 25.3063 247.529 25.3063 L 237.49 25.3063 L 237.49 27.2158 L 249.472 27.2158 C 249.774 27.2158 250.044 27.3365 250.281 27.5779 C 250.519 27.7974 250.638 28.0718 250.638 28.401 L 250.638 32.9114 C 250.638 33.1968 250.519 33.4711 250.281 33.7345 C 250.044 33.9759 249.774 34.0966 249.472 34.0966 L 229.459 34.0966 C 229.157 34.0966 228.887 33.9869 228.65 33.7674 C 228.412 33.526 228.293 33.2406 228.293 32.9114 Z" stroke-linecap="round" />
</g>
		<g transform="matrix(1 0 0 1 100.21 0.47)"  >
<path style="stroke: none; stroke-width: 1; stroke-dasharray: none; stroke-linecap: butt; stroke-dashoffset: 0; stroke-linejoin: miter; stroke-miterlimit: 4; fill: rgb(255,255,255); fill-rule: nonzero; opacity: 1;" vector-effect="non-scaling-stroke"  transform=" translate(-267.01, -22.47)" d="M 262.625 19.9728 C 262.647 19.9728 263.413 20.0057 264.924 20.0715 C 266.457 20.1154 267.645 20.1374 268.487 20.1374 C 268.81 20.1374 269.08 20.0277 269.296 19.8082 C 269.534 19.5887 269.652 19.3253 269.652 19.018 C 269.652 18.7107 269.523 18.4473 269.264 18.2279 C 269.027 17.9864 268.724 17.8657 268.357 17.8657 C 267.537 17.8657 266.392 17.8986 264.924 17.9645 C 263.456 18.0084 262.69 18.0303 262.625 18.0303 L 262.625 19.9728 Z M 253.558 32.9114 L 253.558 12.2359 C 253.558 11.9286 253.666 11.6543 253.882 11.4129 C 254.12 11.1714 254.4 11.0507 254.724 11.0507 C 255.955 11.0507 257.919 11.0178 260.618 10.952 C 263.316 10.8861 265.712 10.8532 267.807 10.8532 C 271.002 10.8532 273.679 11.5994 275.837 13.0919 C 277.996 14.5625 279.076 16.4061 279.076 18.6229 C 279.076 20.0715 278.569 21.3994 277.554 22.6066 C 276.561 23.7918 275.222 24.7027 273.538 25.3392 L 280.242 33.2077 C 280.371 33.3614 280.446 33.515 280.468 33.6687 C 280.468 33.954 280.263 34.0966 279.853 34.0966 L 270.235 34.0966 C 269.415 34.0966 268.821 33.7455 268.454 33.0431 L 265.022 26.1952 L 262.625 26.1952 L 262.625 32.9114 C 262.625 33.1968 262.507 33.4711 262.269 33.7345 C 262.032 33.9759 261.762 34.0966 261.46 34.0966 L 254.724 34.0966 C 254.443 34.0966 254.174 33.9869 253.915 33.7674 C 253.677 33.526 253.558 33.2406 253.558 32.9114 Z" stroke-linecap="round" />
</g>
		<g transform="matrix(1 0 0 1 127.74 0.56)"  >
<path style="stroke: none; stroke-width: 1; stroke-dasharray: none; stroke-linecap: butt; stroke-dashoffset: 0; stroke-linejoin: miter; stroke-miterlimit: 4; fill: rgb(255,255,255); fill-rule: nonzero; opacity: 1;" vector-effect="non-scaling-stroke"  transform=" translate(-294.55, -22.56)" d="M 281.317 29.685 L 281.317 23.9235 C 281.317 23.6382 281.392 23.4516 281.544 23.3638 C 281.694 23.2541 281.889 23.309 282.126 23.5284 C 283.659 24.977 285.43 26.0415 287.437 26.722 C 289.445 27.3804 291.474 27.7096 293.525 27.7096 C 296.763 27.7096 298.382 27.3146 298.382 26.5244 C 298.382 26.1293 298.22 25.8769 297.897 25.7672 C 297.594 25.6355 297.087 25.5697 296.375 25.5697 C 296.159 25.5697 295.738 25.5806 295.112 25.6026 C 294.507 25.6026 294.011 25.6026 293.622 25.6026 C 290.039 25.5148 287.157 24.7356 284.976 23.2651 C 282.796 21.7945 281.705 19.9728 281.705 17.7999 C 281.705 16.1098 282.288 14.7271 283.454 13.6516 C 284.62 12.5542 286.131 11.786 287.988 11.347 C 289.844 10.908 292.046 10.6886 294.594 10.6886 C 296.58 10.6886 298.534 10.8641 300.455 11.2153 C 302.376 11.5665 303.79 12.0055 304.697 12.5322 C 305.366 12.9273 305.701 13.476 305.701 14.1783 L 305.701 18.2279 C 305.701 18.4912 305.593 18.7107 305.377 18.8863 C 305.183 19.04 304.945 19.0509 304.665 18.9193 C 303.391 18.2608 301.826 17.734 299.969 17.3389 C 298.134 16.9439 296.256 16.7463 294.334 16.7463 C 292.24 16.7463 291.193 17.1305 291.193 17.8986 C 291.193 18.5571 292.133 18.8863 294.011 18.8863 C 295.047 18.8863 296.115 18.9522 297.216 19.0838 C 298.339 19.1936 299.548 19.424 300.844 19.7752 C 302.139 20.1045 303.283 20.5324 304.276 21.0592 C 305.269 21.586 306.1 22.3103 306.769 23.2321 C 307.439 24.132 307.773 25.1636 307.773 26.3269 C 307.773 28.6973 306.381 30.6397 303.596 32.1542 C 300.811 33.6686 297.422 34.4259 293.428 34.4259 C 289.693 34.4259 286.001 33.4052 282.353 31.364 C 281.662 30.9909 281.317 30.4312 281.317 29.685 Z" stroke-linecap="round" />
</g>
		<g transform="matrix(1 0 0 1 154.83 0.57)"  >
<path style="stroke: none; stroke-width: 1; stroke-dasharray: none; stroke-linecap: butt; stroke-dashoffset: 0; stroke-linejoin: miter; stroke-miterlimit: 4; fill: rgb(255,255,255); fill-rule: nonzero; opacity: 1;" vector-effect="non-scaling-stroke"  transform=" translate(-321.64, -22.57)" d="M 310.468 32.9114 L 310.468 12.2359 C 310.468 11.9286 310.576 11.6543 310.791 11.4129 C 311.029 11.1714 311.31 11.0507 311.634 11.0507 L 331.646 11.0507 C 331.948 11.0507 332.218 11.1714 332.456 11.4129 C 332.693 11.6323 332.812 11.9067 332.812 12.2359 L 332.812 16.7464 C 332.812 17.0317 332.693 17.306 332.456 17.5694 C 332.218 17.8108 331.948 17.9316 331.646 17.9316 L 319.664 17.9316 L 319.664 19.8411 L 329.703 19.8411 C 330.005 19.8411 330.275 19.9618 330.512 20.2032 C 330.75 20.4227 330.869 20.6971 330.869 21.0263 L 330.869 24.1211 C 330.869 24.3844 330.75 24.6478 330.512 24.9112 C 330.275 25.1746 330.005 25.3063 329.703 25.3063 L 319.664 25.3063 L 319.664 27.2158 L 331.646 27.2158 C 331.948 27.2158 332.218 27.3365 332.456 27.5779 C 332.693 27.7974 332.812 28.0718 332.812 28.401 L 332.812 32.9114 C 332.812 33.1968 332.693 33.4711 332.456 33.7345 C 332.218 33.9759 331.948 34.0966 331.646 34.0966 L 311.634 34.0966 C 311.331 34.0966 311.061 33.9869 310.824 33.7674 C 310.587 33.526 310.468 33.2406 310.468 32.9114 Z" stroke-linecap="round" />
</g>
		<g transform="matrix(1 0 0 1 -138.15 8.96)"  >
<path style="stroke: none; stroke-width: 1; stroke-dasharray: none; stroke-linecap: butt; stroke-dashoffset: 0; stroke-linejoin: miter; stroke-miterlimit: 4; fill: rgb(255,255,255); fill-rule: nonzero; opacity: 1;" vector-effect="non-scaling-stroke"  transform=" translate(-28.66, -30.95)" d="M 29.297 33.3953 C 28.873 33.6435 28.3508 33.6426 27.9276 33.393 L 1.83892 18.0022 C 1.38287 17.7331 0.811523 18.0677 0.811523 18.6037 L 0.811523 27.0461 C 0.811523 27.5424 1.07162 28.0011 1.49406 28.2498 L 27.9287 43.8128 C 28.3513 44.0615 28.8724 44.0626 29.2959 43.8151 L 55.8244 28.3163 C 56.249 28.0682 56.511 27.6082 56.511 27.1103 L 56.511 18.6663 C 56.511 18.1313 55.9414 17.7966 55.4855 18.0636 L 29.297 33.3953 Z" stroke-linecap="round" />
</g>
		<g transform="matrix(1 0 0 1 -138.15 -6.49)"  >
<path style="stroke: none; stroke-width: 1; stroke-dasharray: none; stroke-linecap: butt; stroke-dashoffset: 0; stroke-linejoin: miter; stroke-miterlimit: 4; fill: rgb(255,255,255); fill-rule: nonzero; opacity: 1;" vector-effect="non-scaling-stroke"  transform=" translate(-28.66, -15.51)" d="M 27.9285 0.186806 C 28.3515 -0.0618233 28.8727 -0.0622973 29.2961 0.185561 L 54.3949 14.8795 C 54.8512 15.1464 54.8523 15.8151 54.3971 16.0836 L 48.3041 19.6797 C 47.8803 19.9297 47.3577 19.9304 46.9331 19.6813 L 29.2988 9.3295 C 28.874 9.08011 28.3504 9.08104 27.9265 9.33195 L 27.417 9.63348 C 26.9628 9.90225 26.964 10.5697 27.419 10.8368 L 44.3777 20.792 C 44.834 21.0598 44.834 21.7292 44.3777 21.9967 L 29.2977 30.8395 C 28.8735 31.0883 28.3509 31.0875 27.9273 30.8376 L 2.92562 16.0834 C 2.47059 15.8149 2.47161 15.1464 2.92747 14.8793 L 9.0204 11.3096 C 9.44344 11.0617 9.96429 11.0618 10.3872 11.3099 L 27.9252 21.5967 C 28.3499 21.8459 28.8733 21.8449 29.2971 21.5941 L 29.8065 21.2926 C 30.2608 21.0238 30.2595 20.3562 29.8042 20.0892 L 12.9446 10.2002 C 12.4885 9.93267 12.4882 9.26363 12.944 8.99567 L 27.9285 0.186806 Z" stroke-linecap="round" />
</g>
</g>
</g>
<g transform="matrix(1 0 0 1 540.5 540.5)" style="" id="55005166-e876-4d9c-bb12-5c6b93fe1935"  >
		<text xml:space="preserve" font-family="Raleway" font-size="105" font-style="normal" font-weight="900" style="stroke: none; stroke-width: 1; stroke-dasharray: none; stroke-linecap: butt; stroke-dashoffset: 0; stroke-linejoin: miter; stroke-miterlimit: 4; fill: rgb(255,255,242); fill-rule: nonzero; opacity: 1; white-space: pre;" ><tspan x="-332.32" y="32.98" >WhopperBot</tspan></text>
</g>
</svg>